<svg id="Layer_1" data-name="Layer 1" xmlns="http://www.w3.org/2000/svg" viewBox="0 0 390.72 291.19"><defs><style>.cls-1{fill:#f25022;}.cls-2{fill:#80ba01;}.cls-3{fill:#777;}.cls-4{fill:#02a4ef;}.cls-5{fill:#ffb902;}</style></defs><title>gray</title><path class="cls-1" d="M3,0H42V39H3V0Z"/><path class="cls-2" d="M46,0H85V39H46V0Z"/><path class="cls-3" d="M174.14,15.36A5.16,5.16,0,0,1,178.81,17a4.81,4.81,0,0,1,.58,5.48,5.24,5.24,0,0,1-5.61,2.35,4.77,4.77,0,0,1-3.92-4.7,4.88,4.88,0,0,1,4.28-4.78Z"/><path class="cls-3" d="M109.48,16.4h12.27Q127.48,31,133.24,45.48c1,2.43,1.89,4.88,2.92,7.29,4.91-12.12,9.89-24.21,14.77-36.34,3.93-.07,7.87,0,11.8,0q0,24.6,0,49.2c-2.84,0-5.68,0-8.51,0,0-12.1,0-24.2,0-36.3,0-.55,0-1.09,0-1.63a6,6,0,0,0-.44.78c-4.88,12.39-9.85,24.74-14.69,37.14-2,.07-4.05,0-6.07,0-5-12.39-10-24.8-15-37.2q-.2-.39-.42-.75c-.11,5.3,0,10.61,0,15.91v22h-8V16.4Z"/><path class="cls-3" d="M197.36,30.3a23.19,23.19,0,0,1,12.53,0,9.93,9.93,0,0,1,2.4,1c0,2.68,0,5.37,0,8.06a13.42,13.42,0,0,0-9.63-3,9.93,9.93,0,0,0-7,3.89c-2.11,2.75-2.6,6.41-2.23,9.77a10.55,10.55,0,0,0,3.41,7,10.68,10.68,0,0,0,7.89,2.35,16.06,16.06,0,0,0,7.57-3.11c0,2.55,0,5.1,0,7.64a20.42,20.42,0,0,1-11.53,2.39,17.07,17.07,0,0,1-11-4.58A17.54,17.54,0,0,1,184.66,50,21.31,21.31,0,0,1,188,36.92a17,17,0,0,1,9.36-6.62Z"/><path class="cls-3" d="M289.51,29.77A22.38,22.38,0,0,1,301.19,31v7.76a14.89,14.89,0,0,0-8.86-2.62,4.53,4.53,0,0,0-4,2.23,3.67,3.67,0,0,0,1.22,4.32c2.4,1.6,5.25,2.28,7.73,3.71a11.12,11.12,0,0,1,4.83,4.6,10.29,10.29,0,0,1-2.19,11.87c-3.12,2.91-7.61,3.72-11.74,3.56a25.08,25.08,0,0,1-8.58-2c0-2.72,0-5.43,0-8.15a18.46,18.46,0,0,0,7.66,3.3,9.81,9.81,0,0,0,5.82-.53,3.37,3.37,0,0,0,1-4.79,10.17,10.17,0,0,0-3.69-2.42c-2.48-1.11-5.09-2.05-7.28-3.72A8.81,8.81,0,0,1,280,43.34a10.8,10.8,0,0,1,1.17-8.42,12.58,12.58,0,0,1,8.39-5.15Z"/><path class="cls-3" d="M231.16,30.88a9.49,9.49,0,0,1,7.83-.66c0,2.81,0,5.63,0,8.44a8.94,8.94,0,0,0-5.7-1.34A7,7,0,0,0,228,41.54a15.54,15.54,0,0,0-1.2,7.2V65.6h-8.32q0-17.62,0-35.24c2.77,0,5.55,0,8.33,0,0,2,0,4,0,6a10.79,10.79,0,0,1,4.36-5.52Z"/><path class="cls-3" d="M170.63,30.35c2.79,0,5.59,0,8.39,0,0,11.75,0,23.5,0,35.24h-8.38q0-17.62,0-35.25Z"/><path class="cls-3" d="M274,38.57a14.9,14.9,0,0,0-7.37-7.45,22.33,22.33,0,0,0-12.07-1.42,16.82,16.82,0,0,0-11.1,5.93,18.79,18.79,0,0,0-3.89,10.77c-.34,4.55.42,9.37,3.09,13.17a16,16,0,0,0,9.75,6.36,24.31,24.31,0,0,0,9.87,0,16.36,16.36,0,0,0,9.69-6,18.69,18.69,0,0,0,3.71-10.27A23.22,23.22,0,0,0,274,38.57Zm-8.15,16.18a7.69,7.69,0,0,1-4.14,4.08,11.46,11.46,0,0,1-6.88.3,8.44,8.44,0,0,1-5.29-4.36,16.29,16.29,0,0,1-1.28-8.83,11.27,11.27,0,0,1,3.26-7.36A8.9,8.9,0,0,1,257,36.39a9.08,9.08,0,0,1,7.06,2.4c2,1.91,2.7,4.7,2.91,7.35A18.41,18.41,0,0,1,265.81,54.75Z"/><path class="cls-3" d="M341.53,39.59a15,15,0,0,0-7.25-8.2,21.78,21.78,0,0,0-12.52-1.7,16.5,16.5,0,0,0-14.89,14.82,23.35,23.35,0,0,0,1.33,12.25,15.6,15.6,0,0,0,8.57,8.32,22.65,22.65,0,0,0,11.88,1A16.48,16.48,0,0,0,339,60a19.24,19.24,0,0,0,3.82-12A22.54,22.54,0,0,0,341.53,39.59Zm-7.61,11.95a11.12,11.12,0,0,1-2.18,5.18,8,8,0,0,1-4.93,2.65,11.13,11.13,0,0,1-6-.66,8.52,8.52,0,0,1-4.45-4.65,16.74,16.74,0,0,1-1-7.68,12.1,12.1,0,0,1,2.56-7,8.62,8.62,0,0,1,6.15-3,9.27,9.27,0,0,1,6.76,2A9.71,9.71,0,0,1,333.85,44,21.64,21.64,0,0,1,333.92,51.54Z"/><path class="cls-3" d="M387,37.19V30.34c-2.78,0-5.56,0-8.34,0-.07-3.52,0-7,0-10.57-2.79.84-5.55,1.74-8.35,2.53-.07,2.67,0,5.35,0,8H357.89a53.13,53.13,0,0,1,.16-6.31,4.93,4.93,0,0,1,2.81-3.94c2-.83,4.29-.28,6.22.57,0-2.41,0-4.82,0-7.23-4.05-1.12-8.7-.9-12.29,1.44a11.53,11.53,0,0,0-4.76,6.5c-.9,2.91-.44,6-.58,9-1.95,0-3.9,0-5.85,0,0,2.25,0,4.51,0,6.76,2,0,3.91,0,5.87,0q0,14.22,0,28.45h8.44V37.14h12.35c0,6,0,12.09,0,18.14,0,2.81.52,5.82,2.38,8a9.44,9.44,0,0,0,6.65,3A16.51,16.51,0,0,0,387,65.19V58.28a6.28,6.28,0,0,1-6.41.6,4.23,4.23,0,0,1-1.82-3.37,64.83,64.83,0,0,1-.14-6.54c0-3.94,0-7.88,0-11.82C381.41,37.16,384.2,37.07,387,37.19Z"/><path class="cls-4" d="M3,43H42V82H3V43Z"/><path class="cls-5" d="M46,43H85V82H46V43Z"/><path class="cls-3" d="M3.3,137.67a12.21,12.21,0,0,0,2,1.23,16.17,16.17,0,0,0,2.26.91,14.77,14.77,0,0,0,2.32.56,13.64,13.64,0,0,0,2.24.19q4.14,0,6.19-1.6a5.46,5.46,0,0,0,2.06-4.59,6.17,6.17,0,0,0-.48-2.53,6.51,6.51,0,0,0-1.5-2A15.28,15.28,0,0,0,15.84,128c-1-.62-2.25-1.32-3.65-2.1a44.34,44.34,0,0,1-4-2.4,14.35,14.35,0,0,1-2.72-2.31,7.91,7.91,0,0,1-1.55-2.55,9.16,9.16,0,0,1-.49-3.12,8.16,8.16,0,0,1,.94-4,9.11,9.11,0,0,1,2.54-3,11.65,11.65,0,0,1,3.74-1.89,15.51,15.51,0,0,1,4.58-.66,19.06,19.06,0,0,1,7.19,1.19v3.74a14.88,14.88,0,0,0-7.57-1.86,11.25,11.25,0,0,0-3.06.4,7.92,7.92,0,0,0-2.51,1.15,5.58,5.58,0,0,0-1.7,1.89A5.33,5.33,0,0,0,7,115.12a6.44,6.44,0,0,0,.42,2.45,5.75,5.75,0,0,0,1.34,1.94,12.78,12.78,0,0,0,2.44,1.82q1.52.9,3.69,2.07a42.14,42.14,0,0,1,4,2.37,15.78,15.78,0,0,1,2.83,2.41,9,9,0,0,1,1.69,2.67,8.52,8.52,0,0,1,.56,3.14,9.47,9.47,0,0,1-.89,4.2,8.18,8.18,0,0,1-2.49,3,11.49,11.49,0,0,1-3.81,1.8,18,18,0,0,1-4.85.61,18.7,18.7,0,0,1-2.05-.14,23.53,23.53,0,0,1-2.42-.41,22.44,22.44,0,0,1-2.32-.63,8.46,8.46,0,0,1-1.79-.8Z"/><path class="cls-3" d="M40.58,142.7a8.19,8.19,0,0,1-3.66.83q-6.3,0-6.3-7.26V119.84H26.05V117h4.57v-6.55l3.25-1.07V117h6.71v2.84H33.87v15.92a6.49,6.49,0,0,0,.87,3.81,3.39,3.39,0,0,0,2.92,1.17,5.25,5.25,0,0,0,2.92-.91Z"/><path class="cls-3" d="M63.1,143v-4.42H63a8.69,8.69,0,0,1-8.2,5q-9.27,0-9.27-11.32V117h3.25v14.68q0,4.66,1.67,6.9a5.92,5.92,0,0,0,5.09,2.24,7.2,7.2,0,0,0,3.06-.65A6.94,6.94,0,0,0,61,138.34a8.51,8.51,0,0,0,1.56-2.83,11.16,11.16,0,0,0,.56-3.66V117h3.25v26Z"/><path class="cls-3" d="M93.12,143v-4.57H93a9.27,9.27,0,0,1-3.7,3.82,10.8,10.8,0,0,1-5.44,1.36,10.6,10.6,0,0,1-4.43-.9,9.56,9.56,0,0,1-3.42-2.6,12.2,12.2,0,0,1-2.2-4.12,18,18,0,0,1-.77-5.46,18.36,18.36,0,0,1,.85-5.75,13.51,13.51,0,0,1,2.41-4.47,10.84,10.84,0,0,1,3.76-2.89,11.3,11.3,0,0,1,4.89-1q5.61,0,8,4.49h.1V104.51h3.25V143Zm0-15.69a8.56,8.56,0,0,0-.59-3.18,8,8,0,0,0-1.62-2.56,7.77,7.77,0,0,0-2.5-1.73,8.06,8.06,0,0,0-3.21-.63,8.24,8.24,0,0,0-3.56.76,7.79,7.79,0,0,0-2.78,2.2,10.47,10.47,0,0,0-1.8,3.49,17,17,0,0,0-.06,9.09,9.48,9.48,0,0,0,1.66,3.3,7.32,7.32,0,0,0,2.58,2.06,7.66,7.66,0,0,0,3.32.71,8.72,8.72,0,0,0,3.57-.71,7.92,7.92,0,0,0,2.69-2,8.73,8.73,0,0,0,1.7-2.92,10.55,10.55,0,0,0,.6-3.58Z"/><path class="cls-3" d="M106.45,130.58a14.56,14.56,0,0,0,.64,4.3,9.08,9.08,0,0,0,1.75,3.22,7.59,7.59,0,0,0,2.78,2,9.41,9.41,0,0,0,3.69.7,13.24,13.24,0,0,0,8.31-3.08v3.2a15.15,15.15,0,0,1-9,2.67,12.08,12.08,0,0,1-4.75-.91A9.89,9.89,0,0,1,106.2,140a12,12,0,0,1-2.31-4.28,19,19,0,0,1-.81-5.79,16,16,0,0,1,.88-5.4,13.5,13.5,0,0,1,2.47-4.31,11.26,11.26,0,0,1,3.73-2.84,10.77,10.77,0,0,1,4.72-1,10.58,10.58,0,0,1,4.45.88,8.62,8.62,0,0,1,3.23,2.5,11.36,11.36,0,0,1,2,4,18.83,18.83,0,0,1,.68,5.23v1.62Zm15.44-2.84a9.88,9.88,0,0,0-1.93-6.3,6.32,6.32,0,0,0-5.15-2.23,7.9,7.9,0,0,0-3.06.58,7.39,7.39,0,0,0-2.48,1.69,9.15,9.15,0,0,0-1.76,2.69,13.16,13.16,0,0,0-1,3.57Z"/><path class="cls-3" d="M149.31,143V128q0-8.81-6.39-8.81a7.33,7.33,0,0,0-3.15.67,7.43,7.43,0,0,0-2.5,1.87,8.44,8.44,0,0,0-1.65,2.83,10.2,10.2,0,0,0-.6,3.54V143h-3.25V117H135v4.52h.1a9.39,9.39,0,0,1,8.71-5.13,7.86,7.86,0,0,1,6.5,2.77q2.23,2.76,2.23,8V143Z"/><path class="cls-3" d="M171.71,142.7a8.12,8.12,0,0,1-3.65.83q-6.3,0-6.3-7.26V119.84h-4.57V117h4.57v-6.55l3.25-1.07V117h6.7v2.84H165v15.92a6.57,6.57,0,0,0,.86,3.81,3.4,3.4,0,0,0,2.92,1.17,5.23,5.23,0,0,0,2.92-.91Z"/><path class="cls-3" d="M202.57,109.69V143h-3.38V109.69H188.71v-3.1h24.37v3.1Z"/><path class="cls-3" d="M214.89,130.58a14.9,14.9,0,0,0,.63,4.3,9.09,9.09,0,0,0,1.76,3.22,7.5,7.5,0,0,0,2.78,2,9.41,9.41,0,0,0,3.69.7,13.19,13.19,0,0,0,8.3-3.08v3.2a15.13,15.13,0,0,1-9,2.67,12.06,12.06,0,0,1-4.74-.91,9.84,9.84,0,0,1-3.64-2.66,12.35,12.35,0,0,1-2.31-4.28,19,19,0,0,1-.81-5.79,16,16,0,0,1,.89-5.4,13.29,13.29,0,0,1,2.46-4.31,11.3,11.3,0,0,1,3.74-2.84,10.74,10.74,0,0,1,4.72-1,10.54,10.54,0,0,1,4.44.88,8.58,8.58,0,0,1,3.24,2.5,11.17,11.17,0,0,1,2,4,18.45,18.45,0,0,1,.69,5.23v1.62Zm15.44-2.84a9.94,9.94,0,0,0-1.93-6.3,6.34,6.34,0,0,0-5.16-2.23,7.9,7.9,0,0,0-3.06.58,7.35,7.35,0,0,0-2.47,1.69,9.38,9.38,0,0,0-1.77,2.69,13.92,13.92,0,0,0-1,3.57Z"/><path class="cls-3" d="M257.5,141.83a13.58,13.58,0,0,1-7,1.8,12,12,0,0,1-5-1,11.09,11.09,0,0,1-3.81-2.75,12.3,12.3,0,0,1-2.41-4.17,15.7,15.7,0,0,1-.84-5.22,16.76,16.76,0,0,1,.89-5.49,13.2,13.2,0,0,1,2.59-4.5,12.16,12.16,0,0,1,4.17-3,13.41,13.41,0,0,1,5.63-1.12,13.87,13.87,0,0,1,5.89,1.24v3.46a10.93,10.93,0,0,0-6.14-1.88,9.33,9.33,0,0,0-4.11.87,8.83,8.83,0,0,0-3,2.39A10.77,10.77,0,0,0,242.4,126a14,14,0,0,0-.65,4.28,14.56,14.56,0,0,0,.55,4,9.83,9.83,0,0,0,1.68,3.36,8.1,8.1,0,0,0,2.85,2.32,8.94,8.94,0,0,0,4.07.87,10.82,10.82,0,0,0,6.6-2.19Z"/><path class="cls-3" d="M281.44,143V127.71q0-4.36-1.57-6.43a5.76,5.76,0,0,0-4.9-2.07,7.34,7.34,0,0,0-3,.63,7.51,7.51,0,0,0-2.48,1.83,9.06,9.06,0,0,0-1.71,2.91,11.14,11.14,0,0,0-.63,3.87V143H263.9V104.51h3.25v17h.1a9.63,9.63,0,0,1,8.74-5.1q4.33,0,6.52,2.67c1.46,1.77,2.18,4.4,2.18,7.87V143Z"/><path class="cls-3" d="M310.22,143V128q0-8.81-6.4-8.81a7.33,7.33,0,0,0-3.15.67,7.43,7.43,0,0,0-2.5,1.87,8.79,8.79,0,0,0-1.65,2.83,10.2,10.2,0,0,0-.6,3.54V143h-3.25V117h3.25v4.52h.1a9.4,9.4,0,0,1,8.71-5.13,7.84,7.84,0,0,1,6.5,2.77q2.24,2.76,2.24,8V143Z"/><path class="cls-3" d="M323,110.42a2.25,2.25,0,0,1-1.62-.66,2.2,2.2,0,0,1-.69-1.67,2.15,2.15,0,0,1,.69-1.64,2.28,2.28,0,0,1,1.62-.65,2.59,2.59,0,0,1,.92.17,2.26,2.26,0,0,1,.75.47,2.27,2.27,0,0,1,.69,1.65,2.53,2.53,0,0,1-.17.91,2.17,2.17,0,0,1-.51.75,2.28,2.28,0,0,1-1.68.67ZM321.44,143V117h3.25v26Z"/><path class="cls-3" d="M350.52,141.83a13.58,13.58,0,0,1-7,1.8,12,12,0,0,1-5-1,11.09,11.09,0,0,1-3.81-2.75,12.3,12.3,0,0,1-2.41-4.17,15.7,15.7,0,0,1-.84-5.22,16.76,16.76,0,0,1,.89-5.49,13.36,13.36,0,0,1,2.59-4.5,12.16,12.16,0,0,1,4.17-3,13.41,13.41,0,0,1,5.63-1.12,13.87,13.87,0,0,1,5.89,1.24v3.46a10.93,10.93,0,0,0-6.14-1.88,9.33,9.33,0,0,0-4.11.87,8.83,8.83,0,0,0-3,2.39,10.77,10.77,0,0,0-1.88,3.53,14,14,0,0,0-.64,4.28,14.56,14.56,0,0,0,.54,4,9.83,9.83,0,0,0,1.68,3.36,8.1,8.1,0,0,0,2.85,2.32,8.94,8.94,0,0,0,4.07.87,10.82,10.82,0,0,0,6.6-2.19Z"/><path class="cls-3" d="M371.9,143v-4.62h-.1a9.57,9.57,0,0,1-3.47,3.86,9.2,9.2,0,0,1-5,1.37,10.31,10.31,0,0,1-3.39-.53,7.3,7.3,0,0,1-2.56-1.51,6.67,6.67,0,0,1-1.63-2.35,7.81,7.81,0,0,1-.57-3,7.46,7.46,0,0,1,2.18-5.63,11.78,11.78,0,0,1,6.6-2.73l7.9-1.14q0-7.49-5.81-7.49a12.7,12.7,0,0,0-8.43,3.33V119a10.42,10.42,0,0,1,1.84-1,16,16,0,0,1,2.17-.82,19.6,19.6,0,0,1,2.35-.53,14.59,14.59,0,0,1,2.35-.19q4.33,0,6.56,2.44t2.22,7.26V143Zm-6.7-12.62a19.65,19.65,0,0,0-3,.64,6.2,6.2,0,0,0-2.06,1,4,4,0,0,0-1.19,1.6,6.46,6.46,0,0,0-.38,2.35,4.88,4.88,0,0,0,.37,1.93,4.34,4.34,0,0,0,1.06,1.54,5,5,0,0,0,1.71,1,6.67,6.67,0,0,0,2.27.36,7.48,7.48,0,0,0,5.67-2.49,8.26,8.26,0,0,0,1.65-2.79,10.14,10.14,0,0,0,.6-3.53v-2.57Z"/><path class="cls-3" d="M383.13,143V104.51h3.25V143Z"/><path class="cls-3" d="M29.2,204.65a22.38,22.38,0,0,1-9.62,2,17.6,17.6,0,0,1-7-1.35,15.75,15.75,0,0,1-5.37-3.77,16.78,16.78,0,0,1-3.43-5.74,21.27,21.27,0,0,1-1.21-7.26,22.52,22.52,0,0,1,1.29-7.71,18.18,18.18,0,0,1,3.67-6.2,17,17,0,0,1,5.77-4.12A18.62,18.62,0,0,1,20.9,169a23,23,0,0,1,8.3,1.42V174a18.48,18.48,0,0,0-8.35-2,15.36,15.36,0,0,0-6.28,1.22A13.08,13.08,0,0,0,10,176.66a15.12,15.12,0,0,0-2.87,5.13,20.26,20.26,0,0,0-1,6.46A19.42,19.42,0,0,0,7,194.18,14.17,14.17,0,0,0,9.61,199a12.39,12.39,0,0,0,4.33,3.3,13.89,13.89,0,0,0,6,1.22,18.69,18.69,0,0,0,9.24-2.21Z"/><path class="cls-3" d="M47.23,206.61a13.16,13.16,0,0,1-5.19-1,11.22,11.22,0,0,1-3.93-2.72,12,12,0,0,1-2.48-4.23,16.29,16.29,0,0,1-.87-5.46,17.25,17.25,0,0,1,.92-5.82,12.22,12.22,0,0,1,2.6-4.35,11.23,11.23,0,0,1,4.07-2.73,14.43,14.43,0,0,1,5.34-.94,13.25,13.25,0,0,1,5.08.93A10.41,10.41,0,0,1,56.6,183,11.9,11.9,0,0,1,59,187.26a18,18,0,0,1,.84,5.71,16.49,16.49,0,0,1-.88,5.55,12.34,12.34,0,0,1-2.5,4.31,11,11,0,0,1-4,2.79A13.43,13.43,0,0,1,47.23,206.61Zm.25-24.4a9.8,9.8,0,0,0-3.86.74,8,8,0,0,0-2.95,2.14,9.75,9.75,0,0,0-1.9,3.45,15.11,15.11,0,0,0-.66,4.64,13.68,13.68,0,0,0,.66,4.39,10,10,0,0,0,1.87,3.35,8.05,8.05,0,0,0,2.93,2.15,9.6,9.6,0,0,0,3.86.75,9.49,9.49,0,0,0,3.86-.73,7.62,7.62,0,0,0,2.85-2.1,9.57,9.57,0,0,0,1.76-3.39,16,16,0,0,0,.6-4.57q0-5.26-2.34-8A8.25,8.25,0,0,0,47.48,182.21Z"/><path class="cls-3" d="M99.23,206V190.71a18.44,18.44,0,0,0-.35-3.94,6.92,6.92,0,0,0-1.11-2.63,4.22,4.22,0,0,0-1.9-1.47,7.38,7.38,0,0,0-2.76-.46,5.67,5.67,0,0,0-2.69.67,7.26,7.26,0,0,0-2.22,1.86,9.13,9.13,0,0,0-1.5,2.78,10.66,10.66,0,0,0-.54,3.45v15H82.91V190.38q0-8.17-6.27-8.17a5.67,5.67,0,0,0-2.7.65,6.78,6.78,0,0,0-2.17,1.81,8.77,8.77,0,0,0-1.44,2.81,11.81,11.81,0,0,0-.52,3.62V206H66.56V180h3.25v4.21h.1a8.72,8.72,0,0,1,8-4.82,7.94,7.94,0,0,1,2.59.42,7.47,7.47,0,0,1,3.84,3,7.92,7.92,0,0,1,1.06,2.28A10.42,10.42,0,0,1,89,180.84a8.8,8.8,0,0,1,5-1.45q8.55,0,8.55,10.56V206Z"/><path class="cls-3" d="M143.14,206V190.71a18.37,18.37,0,0,0-.36-3.94,6.91,6.91,0,0,0-1.1-2.63,4.24,4.24,0,0,0-1.91-1.47,7.37,7.37,0,0,0-2.75-.46,5.62,5.62,0,0,0-2.69.67,7,7,0,0,0-2.22,1.86,8.72,8.72,0,0,0-1.5,2.78,10.4,10.4,0,0,0-.55,3.45v15h-3.25V190.38q0-8.17-6.27-8.17a5.66,5.66,0,0,0-2.69.65,6.67,6.67,0,0,0-2.17,1.81,8.78,8.78,0,0,0-1.45,2.81,11.81,11.81,0,0,0-.52,3.62V206h-3.25V180h3.25v4.21h.1a8.73,8.73,0,0,1,8-4.82,7.9,7.9,0,0,1,2.59.42,7.55,7.55,0,0,1,3.85,3,8.18,8.18,0,0,1,1.05,2.28,10.36,10.36,0,0,1,3.57-4.21,8.77,8.77,0,0,1,5-1.45q8.56,0,8.56,10.56V206Z"/><path class="cls-3" d="M171.38,206v-4.42h-.11a8.69,8.69,0,0,1-8.2,5q-9.27,0-9.26-11.32V180h3.25v14.68q0,4.66,1.66,6.9a5.93,5.93,0,0,0,5.09,2.24,7.14,7.14,0,0,0,3.06-.65,7,7,0,0,0,2.39-1.83,8.88,8.88,0,0,0,1.56-2.83,11.43,11.43,0,0,0,.56-3.66V180h3.25v26Z"/><path class="cls-3" d="M200.71,206V191q0-8.81-6.4-8.81a7.33,7.33,0,0,0-3.15.67,7.43,7.43,0,0,0-2.5,1.87,8.61,8.61,0,0,0-1.65,2.83,10.2,10.2,0,0,0-.6,3.54V206h-3.25V180h3.25v4.52h.1a9.39,9.39,0,0,1,8.71-5.13,7.86,7.86,0,0,1,6.5,2.77q2.24,2.76,2.24,8V206Z"/><path class="cls-3" d="M213.53,173.42a2.25,2.25,0,0,1-1.62-.66,2.2,2.2,0,0,1-.69-1.67,2.15,2.15,0,0,1,.69-1.64,2.28,2.28,0,0,1,1.62-.65,2.59,2.59,0,0,1,.92.17,2.12,2.12,0,0,1,.74.47,2.05,2.05,0,0,1,.51.72,2.18,2.18,0,0,1,.19.93,2.34,2.34,0,0,1-.18.91,2,2,0,0,1-.5.75,2.52,2.52,0,0,1-.75.5A2.33,2.33,0,0,1,213.53,173.42ZM211.93,206V180h3.25v26Z"/><path class="cls-3" d="M234.89,205.7a8.19,8.19,0,0,1-3.66.83q-6.3,0-6.29-7.26V182.84h-4.57V180h4.57v-6.55l3.25-1.07V180h6.7v2.84h-6.7v15.92a6.5,6.5,0,0,0,.86,3.81,3.39,3.39,0,0,0,2.92,1.17,5.25,5.25,0,0,0,2.92-.91Z"/><path class="cls-3" d="M247.94,210.72a15.45,15.45,0,0,1-3.5,5.65,6.78,6.78,0,0,1-4.8,1.84,7.34,7.34,0,0,1-2.36-.33v-3a7.54,7.54,0,0,0,1.13.3,6.3,6.3,0,0,0,1.15.1,4.13,4.13,0,0,0,2.78-1,8.08,8.08,0,0,0,2-3l2.26-5.34-10-25.87h3.61l7.44,20.59a9.46,9.46,0,0,1,.29.93l.27,1h.13l.24-.88a9.73,9.73,0,0,1,.31-1l7.9-20.69h3.43Z"/><path class="cls-3" d="M34.84,232.59,21.36,269h-4.7L3.46,232.59H8.21l10.08,28.87a17.25,17.25,0,0,1,.73,3.22h.1a16.42,16.42,0,0,1,.84-3.27l10.28-28.82Z"/><path class="cls-3" d="M44.49,269H40.23V232.59h4.26Z"/><path class="cls-3" d="M75.75,236.45H65.24V269H61V236.45H50.49v-3.86H75.75Z"/><path class="cls-3" d="M123.09,232.59,109.6,269h-4.69L91.7,232.59h4.75l10.08,28.87a17.22,17.22,0,0,1,.74,3.22h.1a15.77,15.77,0,0,1,.84-3.27l10.28-28.82Z"/><path class="cls-3" d="M145.51,257H127.15a9.71,9.71,0,0,0,2.34,6.7,8,8,0,0,0,6.14,2.37,12.8,12.8,0,0,0,8.08-2.9v3.91a15.11,15.11,0,0,1-9.07,2.49,11,11,0,0,1-8.66-3.54q-3.14-3.54-3.14-10a14.2,14.2,0,0,1,3.44-9.89,11,11,0,0,1,8.54-3.82,9.8,9.8,0,0,1,7.9,3.3q2.79,3.3,2.79,9.17Zm-4.27-3.53a8.45,8.45,0,0,0-1.73-5.61,5.94,5.94,0,0,0-4.77-2,6.75,6.75,0,0,0-5,2.11,9.57,9.57,0,0,0-2.54,5.51Z"/><path class="cls-3" d="M156.13,269H152V230.51h4.17Z"/><path class="cls-3" d="M168.88,269h-4.17V230.51h4.17Z"/><path class="cls-3" d="M188.33,269.61a12.08,12.08,0,0,1-9.2-3.64q-3.45-3.64-3.44-9.67,0-6.54,3.58-10.23t9.67-3.68q5.82,0,9.08,3.58t3.26,9.93q0,6.22-3.52,10A12.31,12.31,0,0,1,188.33,269.61Zm.3-23.72a7.9,7.9,0,0,0-6.34,2.73,11.2,11.2,0,0,0-2.34,7.53,10.64,10.64,0,0,0,2.36,7.29,8,8,0,0,0,6.32,2.67,7.61,7.61,0,0,0,6.21-2.62q2.17-2.61,2.17-7.44t-2.17-7.51A7.57,7.57,0,0,0,188.63,245.89Z"/><path class="cls-3" d="M221.65,247.21a5.16,5.16,0,0,0-3.15-.83,5.3,5.3,0,0,0-4.46,2.51,11.66,11.66,0,0,0-1.79,6.86V269h-4.16V243h4.16v5.36h.1a9.11,9.11,0,0,1,2.72-4.28,6.17,6.17,0,0,1,4.09-1.54,6.76,6.76,0,0,1,2.49.36Z"/><path class="cls-3" d="M247.22,257H228.86a9.71,9.71,0,0,0,2.34,6.7,8,8,0,0,0,6.14,2.37,12.8,12.8,0,0,0,8.08-2.9v3.91a15.11,15.11,0,0,1-9.07,2.49,11,11,0,0,1-8.66-3.54q-3.15-3.54-3.15-10a14.25,14.25,0,0,1,3.44-9.89,11,11,0,0,1,8.55-3.82,9.76,9.76,0,0,1,7.89,3.3q2.81,3.3,2.8,9.17ZM243,253.51a8.4,8.4,0,0,0-1.74-5.61,5.92,5.92,0,0,0-4.76-2,6.75,6.75,0,0,0-5,2.11,9.57,9.57,0,0,0-2.54,5.51Z"/></svg>